<svg width="71" height="49" viewBox="0 0 71 49" fill="none" xmlns="http://www.w3.org/2000/svg">
<path d="M60 25.1975C60 28.2557 58.1598 29.5 56.1292 29.5C53.6929 29.5 52 28.0284 52 25.097V19.5H54.1666V24.6113C54.1666 26.1691 54.613 27.3559 56.1292 27.3559C57.4414 27.3559 57.8334 26.3414 57.8334 24.7405V19.5H60V25.1975Z" fill="#F41D0D"/>
<path d="M47 48.5H0V0.5H47V16.923H44.8212V2.72518H2.17654V46.2748H44.8212V31.9698H47V48.5Z" fill="#F41D0D"/>
<path d="M37.321 29.5L32.9687 23.499V29.5H31V19.5H32.679L37.0335 25.5273L37.0291 19.5H38.9956L39 29.5H37.321Z" fill="#F41D0D"/>
<path d="M42 19.5H49V21.6425H46.4647V29.5H44.5333V21.6425H42V19.5Z" fill="#F41D0D"/>
<path d="M10 19.5H12.1268V23.8568L15.1702 19.5H17.7219L14.2269 24.115L18 29.5H15.3037L12.1268 24.7415V29.5H10V19.5Z" fill="#F41D0D"/>
<path d="M23.499 27.429C25.1078 27.429 25.9425 26.1301 25.9425 24.5C25.9425 22.7317 24.8658 21.571 23.499 21.571C22.0967 21.571 21.0575 22.7317 21.0575 24.5C21.0575 26.1563 22.1447 27.429 23.499 27.429ZM23.499 19.5C26.076 19.5 28 21.4185 28 24.5C28 27.429 26.076 29.5 23.499 29.5C20.924 29.5 19 27.5791 19 24.5C19 21.695 20.8029 19.5 23.499 19.5Z" fill="#F41D0D"/>
<path d="M65.2021 21.6728V23.8886H65.9991C66.8399 23.8886 67.4987 23.5727 67.4987 22.7304C67.4987 22.1729 67.2269 21.6704 66.1673 21.6704C65.8356 21.6704 65.6559 21.6584 65.2021 21.6728ZM63 29.5V19.5C63.5367 19.5 65.9991 19.5 66.2755 19.5C68.9038 19.5 69.839 20.8568 69.839 22.7017C69.839 24.5586 68.738 25.3172 68.2151 25.59L71 29.5H68.3303L66.013 26.0327H65.2021V29.5H63Z" fill="#F41D0D"/>
</svg>
