<svg width="332" height="53" viewBox="0 0 332 53" fill="none" xmlns="http://www.w3.org/2000/svg">
<path d="M192.387 2.69036V23.4061H196.54V15.6229C198.052 17.1026 200.188 17.9312 202.649 17.9312C207.602 17.9312 211.28 14.5871 211.28 10.0592C211.28 5.59056 207.573 2.24645 202.649 2.24645C200.158 2.24645 197.993 3.10467 196.48 4.58437L196.095 2.69036H192.387ZM207.128 10.0592C207.128 12.4859 204.933 14.2616 201.76 14.2616C198.645 14.2616 196.54 12.5451 196.54 10.0592C196.54 7.60295 198.645 5.8865 201.76 5.8865C204.874 5.8865 207.128 7.63254 207.128 10.0592Z" fill="#4E433D"/>
<path d="M231.013 11.1246C231.073 10.7991 231.073 10.444 231.073 10.1184C231.073 5.413 227.276 2.24645 222.205 2.24645C217.074 2.24645 213.278 5.59056 213.278 10.1184C213.278 14.5871 217.104 17.9312 222.205 17.9312C226.268 17.9312 229.442 15.978 230.569 12.9594H226.357C225.586 14.0248 224.162 14.6759 222.383 14.6759C219.891 14.6759 217.993 13.2554 217.548 11.1246H231.013ZM217.548 9.05305C217.993 6.98147 219.803 5.59056 222.205 5.59056C224.637 5.59056 226.387 6.95188 226.802 9.05305H217.548Z" fill="#4E433D"/>
<path d="M237.658 9.43777L241.781 17.4873H244.806L248.869 9.55614V17.4873H252.636V2.69036H248.454L243.264 12.2196L238.133 2.69036H233.921V17.4873H237.658V9.43777Z" fill="#4E433D"/>
<path d="M255.506 10.1184C255.506 14.5871 259.392 17.9312 264.582 17.9312C269.861 17.9312 273.687 14.7351 273.687 10.1184C273.687 5.413 269.861 2.24645 264.582 2.24645C259.362 2.24645 255.506 5.59056 255.506 10.1184ZM259.659 10.1184C259.659 7.75092 261.735 6.06406 264.582 6.06406C267.548 6.06406 269.535 7.75092 269.535 10.1184C269.535 12.4268 267.548 14.084 264.582 14.084C261.764 14.084 259.659 12.4268 259.659 10.1184Z" fill="#4E433D"/>
<path d="M276.555 17.4873H280.708V11.9828H290.406V17.4873H294.558V2.69036H290.406V8.16523H280.708V2.69036H276.555V17.4873Z" fill="#4E433D"/>
<path d="M303.822 17.4873H307.974V6.50797H314.617V2.69036H297.089V6.50797H303.822V17.4873Z" fill="#4E433D"/>
<path d="M196.54 41.5768H198.349L203.895 47.0812H209.53L202.145 39.6827L208.937 32.2843H203.48L198.379 37.8183H196.54V32.2843H192.387V47.0812H196.54V41.5768Z" fill="#4E433D"/>
<path d="M211.417 47.0812H220.462C224.348 47.0812 227.106 45.3648 227.106 42.9677C227.106 41.3696 225.801 40.1267 223.695 39.5052C225.356 38.8541 226.424 37.6408 226.424 36.1907C226.424 33.7936 223.992 32.2843 220.462 32.2843H211.417V47.0812ZM222.716 36.6346C222.716 37.6112 221.678 38.2918 220.462 38.2918H215.154V35.0069H220.462C221.797 35.0069 222.716 35.7172 222.716 36.6346ZM223.25 42.6421C223.25 43.6779 222.183 44.329 220.462 44.329H215.154V40.9553H220.462C222.183 40.9553 223.25 41.5472 223.25 42.6421Z" fill="#4E433D"/>
<path d="M247.869 47.0812V32.2843H244.191L243.776 34.2375C242.264 32.6986 240.069 31.8404 237.578 31.8404C232.625 31.8404 228.947 35.1845 228.947 39.7123C228.947 44.181 232.654 47.5251 237.578 47.5251C240.099 47.5251 242.264 46.6373 243.776 45.128L244.191 47.0812H247.869ZM233.099 39.7123C233.099 37.256 235.353 35.4804 238.467 35.4804C241.581 35.4804 243.717 37.2264 243.717 39.7123C243.717 42.1686 241.611 43.8555 238.467 43.8555C235.353 43.8555 233.099 42.1094 233.099 39.7123Z" fill="#4E433D"/>
<path d="M251.676 32.2843V53H255.828V45.2168C257.341 46.6965 259.476 47.5251 261.938 47.5251C266.891 47.5251 270.568 44.181 270.568 39.6531C270.568 35.1845 266.861 31.8404 261.938 31.8404C259.446 31.8404 257.281 32.6986 255.769 34.1783L255.383 32.2843H251.676ZM266.416 39.6531C266.416 42.0798 264.221 43.8555 261.048 43.8555C257.934 43.8555 255.828 42.139 255.828 39.6531C255.828 37.1969 257.934 35.4804 261.048 35.4804C264.162 35.4804 266.416 37.2264 266.416 39.6531Z" fill="#4E433D"/>
<path d="M278.507 47.0812H282.66V36.1019H289.303V32.2843H271.775V36.1019H278.507V47.0812Z" fill="#4E433D"/>
<path d="M309.377 47.0812V32.2843H305.907L295.971 41.192V32.2843H291.819V47.0812H295.26L305.225 38.0255V47.0812H309.377Z" fill="#4E433D"/>
<path d="M313.107 32.2843V53H317.26V45.2168C318.772 46.6965 320.908 47.5251 323.369 47.5251C328.322 47.5251 332 44.181 332 39.6531C332 35.1845 328.293 31.8404 323.369 31.8404C320.878 31.8404 318.713 32.6986 317.2 34.1783L316.815 32.2843H313.107ZM327.848 39.6531C327.848 42.0798 325.653 43.8555 322.48 43.8555C319.365 43.8555 317.26 42.139 317.26 39.6531C317.26 37.1969 319.365 35.4804 322.48 35.4804C325.594 35.4804 327.848 37.2264 327.848 39.6531Z" fill="#4E433D"/>
<path d="M22.9854 9.41625L12.6049 19.6396L16.4471 25.2221H20.6936C25.8839 25.2221 29.1194 27.9124 29.1194 32.217C29.1194 36.1853 25.3447 39.0774 20.2218 39.0774C13.953 39.0774 9.43684 34.7728 9.43684 28.7195H0C0 39.5482 8.83019 48.0901 20.1544 48.0901C30.8719 48.0901 38.5562 41.4987 38.5562 32.1497C38.5562 23.0025 31.7482 19.236 24.5358 18.2272L36.6015 7.86929V0H2.56143V9.41625H22.9854Z" fill="#FFDC60"/>
<path d="M43.8071 30.8046C43.8071 40.6244 52.5024 48.0901 64.0963 48.0901C75.8923 48.0901 84.4529 41.0279 84.4529 30.8046C84.4529 20.3794 76.0271 13.3845 64.3659 13.3173L74.1398 0H63.0852L47.2448 20.7157C45.0204 23.6079 43.8071 27.0381 43.8071 30.8046ZM53.2439 30.7373C53.2439 25.7602 57.8949 22.0609 64.0963 22.0609C70.6346 22.0609 75.016 25.5584 75.016 30.7373C75.016 35.7817 70.6346 39.3464 64.0963 39.3464C57.8949 39.3464 53.2439 35.7817 53.2439 30.7373Z" fill="#FFDC60"/>
<path d="M109.81 48.0901C120.325 48.0901 128.211 41.0952 128.211 31.6117C128.211 22.599 121.066 17.2855 109.136 17.2855H100.508L100.912 9.41625H124.841V0H92.6885L91.5426 19.5051L95.9914 24.4822H109.27C115.067 24.4822 118.775 27.1726 118.775 31.7462C118.775 36.0508 115.135 39.0774 109.742 39.0774C103.473 39.0774 99.0921 35.1091 99.0921 29.5267H89.6552C89.6552 39.9518 98.418 48.0901 109.81 48.0901Z" fill="#FFDC60"/>
<path d="M134.66 27.8452H148.074V41.3642H156.836V27.8452H170.25V19.236H156.836V5.64975H148.074V19.236H134.66V27.8452Z" fill="#FFDC60"/>
</svg>
