<svg width="22" height="12" viewBox="0 0 22 12" fill="none" xmlns="http://www.w3.org/2000/svg">
<path d="M21.5303 5.46967C21.8232 5.76256 21.8232 6.23744 21.5303 6.53033L16.7574 11.3033C16.4645 11.5962 15.9896 11.5962 15.6967 11.3033C15.4038 11.0104 15.4038 10.5355 15.6967 10.2426L19.9393 6L15.6967 1.75736C15.4038 1.46447 15.4038 0.989593 15.6967 0.696699C15.9896 0.403806 16.4645 0.403806 16.7574 0.696699L21.5303 5.46967ZM1 6.75C0.585787 6.75 0.25 6.41421 0.25 6C0.25 5.58579 0.585787 5.25 1 5.25V6.75ZM21 6.75H1V5.25H21V6.75Z" fill="#4E433D"/>
</svg>
